<svg xmlns="http://www.w3.org/2000/svg" xmlns:xlink="http://www.w3.org/1999/xlink" width="500" zoomAndPan="magnify" viewBox="0 0 375 374.999991" height="500" preserveAspectRatio="xMidYMid meet" version="1.0"><defs><g/><clipPath id="b1c0581fc3"><path d="M 68.367188 146.03125 L 306.632812 146.03125 L 306.632812 228.21875 L 68.367188 228.21875 Z M 68.367188 146.03125 " clip-rule="nonzero"/></clipPath><clipPath id="9a868156bf"><path d="M 35 201 L 102 201 L 102 268 L 35 268 Z M 35 201 " clip-rule="nonzero"/></clipPath><clipPath id="201e3475ed"><path d="M 63.09375 201.3125 L 101.199219 228.664062 L 73.636719 267.070312 L 35.527344 239.71875 Z M 63.09375 201.3125 " clip-rule="nonzero"/></clipPath><clipPath id="61eee9448d"><path d="M 273 107 L 340 107 L 340 174 L 273 174 Z M 273 107 " clip-rule="nonzero"/></clipPath><clipPath id="cfa46d48d6"><path d="M 301.355469 107.933594 L 339.464844 135.28125 L 311.898438 173.6875 L 273.789062 146.339844 Z M 301.355469 107.933594 " clip-rule="nonzero"/></clipPath></defs><rect x="-37.5" width="450" fill="#ffffff" y="-37.499999" height="449.999989" fill-opacity="1"/><rect x="-37.5" width="450" fill="#000000" y="-37.499999" height="449.999989" fill-opacity="1"/><g clip-path="url(#b1c0581fc3)"><path fill="#fffaf3" d="M 68.367188 146.03125 L 306.585938 146.03125 L 306.585938 228.21875 L 68.367188 228.21875 Z M 68.367188 146.03125 " fill-opacity="1" fill-rule="nonzero"/></g><g clip-path="url(#9a868156bf)"><g clip-path="url(#201e3475ed)"><path fill="#000000" d="M 63.09375 201.3125 L 101.199219 228.664062 L 73.636719 267.070312 L 35.527344 239.71875 Z M 63.09375 201.3125 " fill-opacity="1" fill-rule="nonzero"/></g></g><g clip-path="url(#61eee9448d)"><g clip-path="url(#cfa46d48d6)"><path fill="#000000" d="M 301.355469 107.933594 L 339.464844 135.28125 L 311.898438 173.6875 L 273.789062 146.339844 Z M 301.355469 107.933594 " fill-opacity="1" fill-rule="nonzero"/></g></g><g fill="#000000" fill-opacity="1"><g transform="translate(83.204413, 188.902465)"><g><path d="M 23.0625 -34.484375 L 29.5625 -34.484375 C 30.21875 -34.484375 30.546875 -34.15625 30.546875 -33.5 L 30.546875 -0.984375 C 30.546875 -0.328125 30.21875 0 29.5625 0 L 24.984375 0 C 24.328125 0 24 -0.328125 24 -0.984375 L 24 -20.34375 L 23.640625 -20.34375 L 19.015625 -0.84375 C 18.847656 -0.28125 18.488281 0 17.9375 0 L 15.03125 0 C 14.46875 0 14.101562 -0.28125 13.9375 -0.84375 L 9.3125 -20.34375 L 8.96875 -20.34375 L 8.96875 -0.984375 C 8.96875 -0.328125 8.640625 0 7.984375 0 L 3.453125 0 C 2.796875 0 2.46875 -0.328125 2.46875 -0.984375 L 2.46875 -33.5 C 2.46875 -34.15625 2.796875 -34.484375 3.453125 -34.484375 L 9.953125 -34.484375 C 10.515625 -34.484375 10.875 -34.203125 11.03125 -33.640625 L 16.5 -11.671875 L 21.96875 -33.640625 C 22.132812 -34.203125 22.5 -34.484375 23.0625 -34.484375 Z M 23.0625 -34.484375 "/></g></g></g><g fill="#000000" fill-opacity="1"><g transform="translate(116.213685, 188.902465)"><g><path d="M 2.46875 -7.09375 L 2.46875 -27.390625 C 2.46875 -29.722656 3.070312 -31.488281 4.28125 -32.6875 C 5.5 -33.882812 7.257812 -34.484375 9.5625 -34.484375 L 15.078125 -34.484375 C 17.410156 -34.484375 19.175781 -33.882812 20.375 -32.6875 C 21.570312 -31.488281 22.171875 -29.722656 22.171875 -27.390625 L 22.171875 -7.09375 C 22.171875 -4.789062 21.570312 -3.03125 20.375 -1.8125 C 19.175781 -0.601562 17.410156 0 15.078125 0 L 9.5625 0 C 7.257812 0 5.5 -0.601562 4.28125 -1.8125 C 3.070312 -3.03125 2.46875 -4.789062 2.46875 -7.09375 Z M 10.84375 -6.359375 L 13.984375 -6.359375 C 15.304688 -6.359375 15.96875 -7.015625 15.96875 -8.328125 L 15.96875 -26.15625 C 15.96875 -27.46875 15.304688 -28.125 13.984375 -28.125 L 10.84375 -28.125 C 9.53125 -28.125 8.875 -27.46875 8.875 -26.15625 L 8.875 -8.328125 C 8.875 -7.015625 9.53125 -6.359375 10.84375 -6.359375 Z M 10.84375 -6.359375 "/></g></g></g><g fill="#000000" fill-opacity="1"><g transform="translate(140.847476, 188.902465)"><g><path d="M 18.078125 -34.484375 L 22.71875 -34.484375 C 23.238281 -34.484375 23.5 -34.222656 23.5 -33.703125 L 23.5 -0.78125 C 23.5 -0.257812 23.238281 0 22.71875 0 L 18.8125 0 C 18.425781 0 18.132812 -0.210938 17.9375 -0.640625 L 8.671875 -19.453125 L 8.671875 -0.78125 C 8.671875 -0.257812 8.40625 0 7.875 0 L 3.25 0 C 2.726562 0 2.46875 -0.257812 2.46875 -0.78125 L 2.46875 -33.703125 C 2.46875 -34.222656 2.726562 -34.484375 3.25 -34.484375 L 7.140625 -34.484375 C 7.535156 -34.484375 7.832031 -34.269531 8.03125 -33.84375 L 17.296875 -15.03125 L 17.296875 -33.703125 C 17.296875 -34.222656 17.554688 -34.484375 18.078125 -34.484375 Z M 18.078125 -34.484375 "/></g></g></g><g fill="#000000" fill-opacity="1"><g transform="translate(166.811485, 188.902465)"><g><path d="M 20.390625 -34.484375 L 2.265625 -34.484375 C 1.742188 -34.484375 1.484375 -34.222656 1.484375 -33.703125 L 1.484375 -28.765625 C 1.484375 -28.242188 1.742188 -27.984375 2.265625 -27.984375 L 7.984375 -27.984375 L 7.984375 -0.78125 C 7.984375 -0.257812 8.242188 0 8.765625 0 L 13.890625 0 C 14.421875 0 14.6875 -0.257812 14.6875 -0.78125 L 14.6875 -27.984375 L 20.390625 -27.984375 C 20.921875 -27.984375 21.1875 -28.242188 21.1875 -28.765625 L 21.1875 -33.703125 C 21.1875 -34.222656 20.921875 -34.484375 20.390625 -34.484375 Z M 20.390625 -34.484375 "/></g></g></g><g fill="#000000" fill-opacity="1"><g transform="translate(189.474562, 188.902465)"><g><path d="M 22.125 -33.703125 L 22.125 -28.765625 C 22.125 -28.210938 21.859375 -27.9375 21.328125 -27.9375 L 9.15625 -27.9375 L 9.15625 -20.34375 L 18.421875 -20.34375 C 18.953125 -20.34375 19.21875 -20.066406 19.21875 -19.515625 L 19.21875 -14.625 C 19.21875 -14.070312 18.953125 -13.796875 18.421875 -13.796875 L 9.15625 -13.796875 L 9.15625 -6.5 L 21.328125 -6.5 C 21.859375 -6.5 22.125 -6.238281 22.125 -5.71875 L 22.125 -0.78125 C 22.125 -0.257812 21.859375 0 21.328125 0 L 3.203125 0 C 2.710938 0 2.46875 -0.257812 2.46875 -0.78125 L 2.46875 -33.703125 C 2.46875 -34.222656 2.710938 -34.484375 3.203125 -34.484375 L 21.328125 -34.484375 C 21.859375 -34.484375 22.125 -34.222656 22.125 -33.703125 Z M 22.125 -33.703125 "/></g></g></g><g fill="#000000" fill-opacity="1"><g transform="translate(214.059076, 188.902465)"><g><path d="M 22.171875 -27.390625 L 22.171875 -17.484375 C 22.171875 -14.628906 21.25 -12.628906 19.40625 -11.484375 L 21.96875 -0.890625 C 22.132812 -0.296875 21.90625 0 21.28125 0 L 16.453125 0 C 15.992188 0 15.71875 -0.226562 15.625 -0.6875 L 13.25 -10.390625 L 8.875 -10.390625 L 8.875 -0.78125 C 8.875 -0.257812 8.609375 0 8.078125 0 L 3.25 0 C 2.726562 0 2.46875 -0.257812 2.46875 -0.78125 L 2.46875 -33.703125 C 2.46875 -34.222656 2.726562 -34.484375 3.25 -34.484375 L 15.078125 -34.484375 C 17.410156 -34.484375 19.175781 -33.882812 20.375 -32.6875 C 21.570312 -31.488281 22.171875 -29.722656 22.171875 -27.390625 Z M 8.875 -16.75 L 13.796875 -16.75 C 15.109375 -16.75 15.765625 -17.40625 15.765625 -18.71875 L 15.765625 -26.15625 C 15.765625 -27.46875 15.109375 -28.125 13.796875 -28.125 L 8.875 -28.125 Z M 8.875 -16.75 "/></g></g></g><g fill="#000000" fill-opacity="1"><g transform="translate(238.692867, 188.902465)"><g><path d="M 2.46875 -7.09375 L 2.46875 -27.390625 C 2.46875 -29.722656 3.070312 -31.488281 4.28125 -32.6875 C 5.5 -33.882812 7.257812 -34.484375 9.5625 -34.484375 L 15.078125 -34.484375 C 17.410156 -34.484375 19.175781 -33.882812 20.375 -32.6875 C 21.570312 -31.488281 22.171875 -29.722656 22.171875 -27.390625 L 22.171875 -7.09375 C 22.171875 -4.789062 21.570312 -3.03125 20.375 -1.8125 C 19.175781 -0.601562 17.410156 0 15.078125 0 L 9.5625 0 C 7.257812 0 5.5 -0.601562 4.28125 -1.8125 C 3.070312 -3.03125 2.46875 -4.789062 2.46875 -7.09375 Z M 10.84375 -6.359375 L 13.984375 -6.359375 C 15.304688 -6.359375 15.96875 -7.015625 15.96875 -8.328125 L 15.96875 -26.15625 C 15.96875 -27.46875 15.304688 -28.125 13.984375 -28.125 L 10.84375 -28.125 C 9.53125 -28.125 8.875 -27.46875 8.875 -26.15625 L 8.875 -8.328125 C 8.875 -7.015625 9.53125 -6.359375 10.84375 -6.359375 Z M 10.84375 -6.359375 "/></g></g></g><g fill="#000000" fill-opacity="1"><g transform="translate(155.924809, 205.73056)"><g><path d="M 3.390625 0 L 0.9375 0 L 0.9375 -8.984375 L 3.40625 -8.984375 C 4.90625 -8.984375 6.046875 -8.59375 6.828125 -7.8125 C 7.617188 -7.03125 8.015625 -5.914062 8.015625 -4.46875 C 8.015625 -3.039062 7.617188 -1.9375 6.828125 -1.15625 C 6.035156 -0.382812 4.890625 0 3.390625 0 Z M 2.015625 -8.015625 L 2.015625 -0.984375 L 3.375 -0.984375 C 3.851562 -0.984375 4.304688 -1.03125 4.734375 -1.125 C 5.160156 -1.21875 5.535156 -1.390625 5.859375 -1.640625 C 6.191406 -1.898438 6.453125 -2.257812 6.640625 -2.71875 C 6.835938 -3.175781 6.9375 -3.757812 6.9375 -4.46875 C 6.9375 -5.34375 6.785156 -6.035156 6.484375 -6.546875 C 6.179688 -7.066406 5.765625 -7.441406 5.234375 -7.671875 C 4.703125 -7.898438 4.085938 -8.015625 3.390625 -8.015625 Z M 2.015625 -8.015625 "/></g></g></g><g fill="#000000" fill-opacity="1"><g transform="translate(164.543403, 205.73056)"><g><path d="M 6.734375 0 L 0.9375 0 L 0.9375 -8.984375 L 6.734375 -8.984375 L 6.734375 -8.015625 L 2.015625 -8.015625 L 2.015625 -5 L 6.1875 -5 L 6.1875 -4.03125 L 2.015625 -4.03125 L 2.015625 -0.984375 L 6.734375 -0.984375 Z M 6.734375 0 "/></g></g></g><g fill="#000000" fill-opacity="1"><g transform="translate(171.796219, 205.73056)"><g><path d="M 4.1875 0.125 C 3.59375 0.125 3.03125 0.03125 2.5 -0.15625 C 1.976562 -0.351562 1.535156 -0.660156 1.171875 -1.078125 C 0.816406 -1.503906 0.59375 -2.050781 0.5 -2.71875 L 1.59375 -2.71875 C 1.6875 -2.238281 1.867188 -1.863281 2.140625 -1.59375 C 2.421875 -1.320312 2.742188 -1.128906 3.109375 -1.015625 C 3.484375 -0.898438 3.859375 -0.84375 4.234375 -0.84375 C 4.859375 -0.84375 5.347656 -0.972656 5.703125 -1.234375 C 6.066406 -1.503906 6.25 -1.90625 6.25 -2.4375 C 6.25 -2.757812 6.175781 -3.019531 6.03125 -3.21875 C 5.894531 -3.425781 5.707031 -3.59375 5.46875 -3.71875 C 5.238281 -3.84375 4.972656 -3.941406 4.671875 -4.015625 C 4.378906 -4.097656 4.078125 -4.175781 3.765625 -4.25 C 3.410156 -4.320312 3.0625 -4.40625 2.71875 -4.5 C 2.375 -4.59375 2.0625 -4.722656 1.78125 -4.890625 C 1.5 -5.054688 1.273438 -5.273438 1.109375 -5.546875 C 0.941406 -5.828125 0.859375 -6.191406 0.859375 -6.640625 C 0.859375 -7.148438 0.984375 -7.585938 1.234375 -7.953125 C 1.484375 -8.316406 1.828125 -8.597656 2.265625 -8.796875 C 2.703125 -9.003906 3.21875 -9.109375 3.8125 -9.109375 C 4.320312 -9.109375 4.804688 -9.019531 5.265625 -8.84375 C 5.722656 -8.664062 6.113281 -8.390625 6.4375 -8.015625 C 6.757812 -7.640625 6.96875 -7.140625 7.0625 -6.515625 L 6.015625 -6.515625 C 5.929688 -6.921875 5.773438 -7.238281 5.546875 -7.46875 C 5.316406 -7.707031 5.046875 -7.878906 4.734375 -7.984375 C 4.429688 -8.085938 4.117188 -8.140625 3.796875 -8.140625 C 3.191406 -8.140625 2.726562 -8.007812 2.40625 -7.75 C 2.09375 -7.5 1.9375 -7.160156 1.9375 -6.734375 C 1.9375 -6.367188 2.046875 -6.082031 2.265625 -5.875 C 2.484375 -5.675781 2.765625 -5.523438 3.109375 -5.421875 C 3.460938 -5.316406 3.835938 -5.222656 4.234375 -5.140625 C 4.609375 -5.054688 4.976562 -4.960938 5.34375 -4.859375 C 5.707031 -4.765625 6.035156 -4.625 6.328125 -4.4375 C 6.628906 -4.257812 6.867188 -4.015625 7.046875 -3.703125 C 7.234375 -3.398438 7.328125 -3.003906 7.328125 -2.515625 C 7.328125 -1.710938 7.054688 -1.070312 6.515625 -0.59375 C 5.984375 -0.113281 5.207031 0.125 4.1875 0.125 Z M 4.1875 0.125 "/></g></g></g><g fill="#000000" fill-opacity="1"><g transform="translate(179.72015, 205.73056)"><g><path d="M 2.015625 0 L 0.9375 0 L 0.9375 -8.984375 L 2.015625 -8.984375 Z M 2.015625 0 "/></g></g></g><g fill="#000000" fill-opacity="1"><g transform="translate(182.675429, 205.73056)"><g><path d="M 4.828125 0.125 C 4.085938 0.125 3.453125 0 2.921875 -0.25 C 2.390625 -0.507812 1.945312 -0.859375 1.59375 -1.296875 C 1.25 -1.734375 0.992188 -2.226562 0.828125 -2.78125 C 0.671875 -3.332031 0.59375 -3.898438 0.59375 -4.484375 C 0.59375 -5.078125 0.675781 -5.648438 0.84375 -6.203125 C 1.007812 -6.753906 1.265625 -7.25 1.609375 -7.6875 C 1.953125 -8.125 2.390625 -8.46875 2.921875 -8.71875 C 3.453125 -8.976562 4.082031 -9.109375 4.8125 -9.109375 C 5.820312 -9.109375 6.644531 -8.867188 7.28125 -8.390625 C 7.925781 -7.910156 8.367188 -7.285156 8.609375 -6.515625 L 7.40625 -6.515625 C 7.207031 -7.003906 6.882812 -7.394531 6.4375 -7.6875 C 5.988281 -7.988281 5.441406 -8.140625 4.796875 -8.140625 C 4.242188 -8.140625 3.769531 -8.039062 3.375 -7.84375 C 2.988281 -7.644531 2.664062 -7.375 2.40625 -7.03125 C 2.15625 -6.6875 1.96875 -6.296875 1.84375 -5.859375 C 1.726562 -5.429688 1.671875 -4.988281 1.671875 -4.53125 C 1.671875 -3.875 1.785156 -3.265625 2.015625 -2.703125 C 2.253906 -2.140625 2.601562 -1.6875 3.0625 -1.34375 C 3.53125 -1.007812 4.113281 -0.84375 4.8125 -0.84375 C 5.40625 -0.84375 5.914062 -0.957031 6.34375 -1.1875 C 6.78125 -1.425781 7.113281 -1.757812 7.34375 -2.1875 C 7.582031 -2.625 7.703125 -3.140625 7.703125 -3.734375 L 5.546875 -3.734375 L 5.546875 -4.703125 L 8.765625 -4.703125 L 8.765625 0 L 7.78125 0 L 7.78125 -1.28125 C 7.457031 -0.800781 7.023438 -0.445312 6.484375 -0.21875 C 5.941406 0.0078125 5.390625 0.125 4.828125 0.125 Z M 4.828125 0.125 "/></g></g></g><g fill="#000000" fill-opacity="1"><g transform="translate(192.177081, 205.73056)"><g><path d="M 2.015625 0 L 0.9375 0 L 0.9375 -8.984375 L 2.515625 -8.984375 L 6.546875 -1.078125 L 6.546875 -8.984375 L 7.625 -8.984375 L 7.625 0 L 6.046875 0 L 2.015625 -7.875 Z M 2.015625 0 "/></g></g></g><g fill="#000000" fill-opacity="1"><g transform="translate(200.736812, 205.73056)"><g><path d="M 4.1875 0.125 C 3.59375 0.125 3.03125 0.03125 2.5 -0.15625 C 1.976562 -0.351562 1.535156 -0.660156 1.171875 -1.078125 C 0.816406 -1.503906 0.59375 -2.050781 0.5 -2.71875 L 1.59375 -2.71875 C 1.6875 -2.238281 1.867188 -1.863281 2.140625 -1.59375 C 2.421875 -1.320312 2.742188 -1.128906 3.109375 -1.015625 C 3.484375 -0.898438 3.859375 -0.84375 4.234375 -0.84375 C 4.859375 -0.84375 5.347656 -0.972656 5.703125 -1.234375 C 6.066406 -1.503906 6.25 -1.90625 6.25 -2.4375 C 6.25 -2.757812 6.175781 -3.019531 6.03125 -3.21875 C 5.894531 -3.425781 5.707031 -3.59375 5.46875 -3.71875 C 5.238281 -3.84375 4.972656 -3.941406 4.671875 -4.015625 C 4.378906 -4.097656 4.078125 -4.175781 3.765625 -4.25 C 3.410156 -4.320312 3.0625 -4.40625 2.71875 -4.5 C 2.375 -4.59375 2.0625 -4.722656 1.78125 -4.890625 C 1.5 -5.054688 1.273438 -5.273438 1.109375 -5.546875 C 0.941406 -5.828125 0.859375 -6.191406 0.859375 -6.640625 C 0.859375 -7.148438 0.984375 -7.585938 1.234375 -7.953125 C 1.484375 -8.316406 1.828125 -8.597656 2.265625 -8.796875 C 2.703125 -9.003906 3.21875 -9.109375 3.8125 -9.109375 C 4.320312 -9.109375 4.804688 -9.019531 5.265625 -8.84375 C 5.722656 -8.664062 6.113281 -8.390625 6.4375 -8.015625 C 6.757812 -7.640625 6.96875 -7.140625 7.0625 -6.515625 L 6.015625 -6.515625 C 5.929688 -6.921875 5.773438 -7.238281 5.546875 -7.46875 C 5.316406 -7.707031 5.046875 -7.878906 4.734375 -7.984375 C 4.429688 -8.085938 4.117188 -8.140625 3.796875 -8.140625 C 3.191406 -8.140625 2.726562 -8.007812 2.40625 -7.75 C 2.09375 -7.5 1.9375 -7.160156 1.9375 -6.734375 C 1.9375 -6.367188 2.046875 -6.082031 2.265625 -5.875 C 2.484375 -5.675781 2.765625 -5.523438 3.109375 -5.421875 C 3.460938 -5.316406 3.835938 -5.222656 4.234375 -5.140625 C 4.609375 -5.054688 4.976562 -4.960938 5.34375 -4.859375 C 5.707031 -4.765625 6.035156 -4.625 6.328125 -4.4375 C 6.628906 -4.257812 6.867188 -4.015625 7.046875 -3.703125 C 7.234375 -3.398438 7.328125 -3.003906 7.328125 -2.515625 C 7.328125 -1.710938 7.054688 -1.070312 6.515625 -0.59375 C 5.984375 -0.113281 5.207031 0.125 4.1875 0.125 Z M 4.1875 0.125 "/></g></g></g></svg>